<svg data-v-423bf9ae="" xmlns="http://www.w3.org/2000/svg" viewBox="0 0 296 90" class="iconLeft"><!----><!----><!----><g data-v-423bf9ae="" id="2311b485-a315-4d61-950f-ed5217961a71" fill="#2F2849" transform="matrix(5.03355701476259,0,0,5.03355701476259,107.73490004804125,-17.26509874289404)"><path d="M8.29 10.96L8.29 10.96Q8.71 10.96 8.94 11.24L8.94 11.24L8.94 11.24Q9.17 11.51 9.17 12.15L9.17 12.15L9.17 16.91L9.17 16.91Q9.17 17.12 9.27 17.26L9.27 17.26L9.27 17.26Q9.37 17.39 9.53 17.39L9.53 17.39L9.53 17.39Q9.70 17.39 9.90 17.25L9.90 17.25L9.90 17.25Q10.09 17.11 10.28 16.84L10.28 16.84L10.50 17.05L10.50 17.05Q10.21 17.68 9.80 17.93L9.80 17.93L9.80 17.93Q9.39 18.17 9.65 18.17L9.65 18.17L9.65 18.17Q9.90 18.16 9.04 18.16L9.04 18.16L9.04 18.16Q7.88 18.16 7.88 16.74L7.88 16.74L7.88 12.88L7.88 12.88Q7.88 12.74 7.81 12.64L7.81 12.64L7.81 12.64Q7.74 12.54 7.63 12.54L7.63 12.54L7.63 12.54Q7.32 12.54 6.96 13.22L6.96 13.22L6.96 13.22Q6.59 13.89 6.34 15.11L6.34 15.11L6.34 15.11Q6.09 16.34 6.09 17.92L6.09 17.92L4.82 18.28L4.82 12.88L4.82 12.88Q4.82 12.74 4.75 12.64L4.75 12.64L4.75 12.64Q4.68 12.54 4.58 12.54L4.58 12.54L4.58 12.54Q4.30 12.54 3.93 13.22L3.93 13.22L3.93 13.22Q3.56 13.90 3.28 15.13L3.28 15.13L3.28 15.13Q3.01 16.35 3.01 17.92L3.01 17.92L1.81 18.28L1.81 12.29L1.81 12.29Q1.81 12.05 1.69 11.91L1.69 11.91L1.69 11.91Q1.57 11.77 1.39 11.77L1.39 11.77L1.39 11.77Q1.04 11.77 0.67 12.38L0.67 12.38L0.45 12.15L0.45 12.15Q0.74 11.52 1.15 11.25L1.15 11.25L1.15 11.25Q1.55 10.98 1.65 10.97L1.65 10.97L1.65 10.97Q1.74 10.96 1.92 10.96L1.92 10.96L1.92 10.96Q2.59 10.96 2.83 11.25L2.83 11.25L2.83 11.25Q3.07 11.54 3.07 12.01L3.07 12.01L3.07 14.35L3.11 14.35L3.11 14.35Q3.46 12.82 4.05 11.89L4.05 11.89L4.05 11.89Q4.65 10.96 5.24 10.96L5.24 10.96L5.24 10.96Q5.67 10.96 5.89 11.23L5.89 11.23L5.89 11.23Q6.10 11.49 6.10 12.15L6.10 12.15L6.10 14.35L6.19 14.35L6.19 14.35Q6.54 12.82 7.12 11.89L7.12 11.89L7.12 11.89Q7.70 10.96 8.29 10.96L8.29 10.96ZM15.29 11.09L15.29 11.09Q15.97 11.09 16.58 11.38L16.58 11.38L16.58 11.38Q17.19 11.68 17.47 12.28L17.47 12.28L16.46 12.82L16.46 12.82Q16.24 12.50 15.85 12.24L15.85 12.24L15.85 12.24Q15.46 11.98 15.01 11.98L15.01 11.98L15.01 11.98Q14.29 11.98 13.76 12.36L13.76 12.36L13.76 12.36Q13.23 12.73 12.95 13.36L12.95 13.36L12.95 13.36Q12.67 13.99 12.67 14.76L12.67 14.76L12.67 14.76Q12.67 15.86 13.05 16.55L13.05 16.55L13.05 16.55Q13.43 17.25 14.24 17.25L14.24 17.25L14.24 17.25Q15.39 17.25 15.82 16.32L15.82 16.32L15.82 16.32Q16.25 15.40 16.25 14.31L16.25 14.31L16.25 13.68L17.49 13.16L17.49 16.84L17.49 16.84Q17.49 17.02 17.58 17.19L17.58 17.19L17.58 17.19Q17.68 17.36 17.88 17.36L17.88 17.36L17.88 17.36Q18.28 17.36 18.62 16.80L18.62 16.80L18.83 17.02L18.83 17.02Q18.66 17.50 18.24 17.83L18.24 17.83L18.24 17.83Q17.82 18.16 17.40 18.16L17.40 18.16L17.40 18.16Q16.80 18.16 16.51 17.71L16.51 17.71L16.51 17.71Q16.23 17.26 16.23 16.52L16.23 16.52L16.20 16.52L16.20 16.52Q15.85 17.26 15.25 17.76L15.25 17.76L15.25 17.76Q14.66 18.26 14 18.26L14 18.26L14 18.26Q12.81 18.26 12.20 17.44L12.20 17.44L12.20 17.44Q11.59 16.62 11.59 15.25L11.59 15.25L11.59 15.25Q11.59 14.15 12.08 13.20L12.08 13.20L12.08 13.20Q12.57 12.24 13.42 11.66L13.42 11.66L13.42 11.66Q14.27 11.09 15.29 11.09L15.29 11.09ZM24.79 10.61L24.79 10.61Q25.35 10.79 25.66 11.21L25.66 11.21L25.66 11.21Q25.97 11.63 25.97 12.18L25.97 12.18L25.97 12.18Q25.97 12.47 25.89 12.82L25.89 12.82L25.89 12.82Q25.82 13.17 25.69 13.43L25.69 13.43L23.25 18.24L23.25 18.24Q23.23 18.27 23.14 18.30L23.14 18.30L23.14 18.30Q23.04 18.33 22.97 18.33L22.97 18.33L22.97 18.33Q22.86 18.33 22.76 18.28L22.76 18.28L22.76 18.28Q22.65 18.24 22.64 18.20L22.64 18.20L20.22 12.91L20.22 12.91Q19.87 12.26 19.49 12.26L19.49 12.26L19.49 12.26Q19.35 12.26 19.23 12.36L19.23 12.36L19.23 12.36Q19.11 12.45 19.07 12.47L19.07 12.47L18.94 12.32L18.94 12.32Q19.11 11.79 19.57 11.44L19.57 11.44L19.57 11.44Q20.02 11.09 20.48 11.09L20.48 11.09L20.48 11.09Q20.75 11.09 20.95 11.44L20.95 11.44L20.95 11.44Q21.15 11.79 21.28 12.12L21.28 12.12L21.28 12.12Q21.41 12.45 21.45 12.54L21.45 12.54L23.41 16.90L24.65 14.36L24.65 14.36Q24.67 14.32 24.77 14.06L24.77 14.06L24.77 14.06Q24.88 13.79 24.88 13.54L24.88 13.54L24.88 13.54Q24.88 12.50 23.76 11.98L23.76 11.98L24.79 10.61ZM28.73 6.41L28.25 9.67L27.79 9.84L27.22 6.93L28.73 6.41ZM28.71 11.14L28.71 16.91L28.71 16.91Q28.71 17.12 28.82 17.26L28.82 17.26L28.82 17.26Q28.92 17.39 29.12 17.39L29.12 17.39L29.12 17.39Q29.27 17.39 29.46 17.25L29.46 17.25L29.46 17.25Q29.65 17.11 29.85 16.84L29.85 16.84L30.07 17.05L30.07 17.05Q29.75 17.65 29.30 17.91L29.30 17.91L29.30 17.91Q28.84 18.16 28.46 18.16L28.46 18.16L28.46 18.16Q27.96 18.16 27.69 17.84L27.69 17.84L27.69 17.84Q27.41 17.51 27.41 16.74L27.41 16.74L27.41 11.65L28.71 11.14ZM34.87 11.00L34.87 11.00Q35.45 11.00 35.94 11.33L35.94 11.33L35.94 11.33Q36.43 11.65 36.71 12.35L36.71 12.35L35.56 12.94L35.56 12.94Q35.42 12.45 35.01 12.17L35.01 12.17L35.01 12.17Q34.59 11.89 34.13 11.89L34.13 11.89L34.13 11.89Q33.46 11.89 32.94 12.24L32.94 12.24L32.94 12.24Q32.42 12.59 32.14 13.13L32.14 13.13L32.14 13.13Q31.86 13.68 31.86 14.24L31.86 14.24L31.86 14.24Q31.86 15.22 32.19 15.93L32.19 15.93L32.19 15.93Q32.51 16.63 33.07 17.00L33.07 17.00L33.07 17.00Q33.63 17.37 34.33 17.37L34.33 17.37L34.33 17.37Q35.17 17.37 35.80 16.96L35.80 16.96L35.80 16.96Q36.43 16.55 36.99 15.90L36.99 15.90L37.23 16.13L37.23 16.13Q36.54 17.18 35.78 17.72L35.78 17.72L35.78 17.72Q35.01 18.26 33.91 18.26L33.91 18.26L33.91 18.26Q33.04 18.26 32.35 17.85L32.35 17.85L32.35 17.85Q31.67 17.44 31.28 16.70L31.28 16.70L31.28 16.70Q30.88 15.95 30.88 14.97L30.88 14.97L30.88 14.97Q30.88 13.87 31.33 12.97L31.33 12.97L31.33 12.97Q31.78 12.07 32.68 11.54L32.68 11.54L32.68 11.54Q33.57 11.00 34.87 11.00L34.87 11.00Z"></path></g><defs data-v-423bf9ae=""><linearGradient data-v-423bf9ae="" gradientTransform="rotate(25)" id="b23e3136-6101-45a8-ab4b-dee048a13a2a" x1="0%" y1="0%" x2="100%" y2="0%"><stop data-v-423bf9ae="" offset="0%" style="stop-color: rgb(233, 142, 13); stop-opacity: 1;"></stop><stop data-v-423bf9ae="" offset="100%" style="stop-color: rgb(21, 54, 241); stop-opacity: 1;"></stop></linearGradient></defs><g data-v-423bf9ae="" id="e038e64f-8c9f-4796-945d-94ce6657e8e6" transform="matrix(2.8125,0,0,2.8125,0,0)" stroke="none" fill="url(#b23e3136-6101-45a8-ab4b-dee048a13a2a)"><path d="M11.579 32H32L21.789 14.314z"></path><circle cx="8.683" cy="8.683" r="8.683"></circle></g><!----></svg>